<svg xmlns="http://www.w3.org/2000/svg" viewBox="0 0 64 64">
  <circle cx="32" cy="32" r="31" fill="#fbf6f0"/>
  <g transform="translate(32 32)">
    <g fill="#e39a26">
      <ellipse rx="5" ry="13" cy="-13" transform="rotate(22.5)"/><ellipse rx="5" ry="13" cy="-13" transform="rotate(67.5)"/>
      <ellipse rx="5" ry="13" cy="-13" transform="rotate(112.5)"/><ellipse rx="5" ry="13" cy="-13" transform="rotate(157.5)"/>
      <ellipse rx="5" ry="13" cy="-13" transform="rotate(202.5)"/><ellipse rx="5" ry="13" cy="-13" transform="rotate(247.5)"/>
      <ellipse rx="5" ry="13" cy="-13" transform="rotate(292.5)"/><ellipse rx="5" ry="13" cy="-13" transform="rotate(337.5)"/>
    </g>
    <g fill="#f6be45">
      <ellipse rx="5" ry="13" cy="-13"/><ellipse rx="5" ry="13" cy="-13" transform="rotate(45)"/>
      <ellipse rx="5" ry="13" cy="-13" transform="rotate(90)"/><ellipse rx="5" ry="13" cy="-13" transform="rotate(135)"/>
      <ellipse rx="5" ry="13" cy="-13" transform="rotate(180)"/><ellipse rx="5" ry="13" cy="-13" transform="rotate(225)"/>
      <ellipse rx="5" ry="13" cy="-13" transform="rotate(270)"/><ellipse rx="5" ry="13" cy="-13" transform="rotate(315)"/>
    </g>
    <circle r="10" fill="#4e2f18"/>
    <circle r="6" fill="#6b4424"/>
  </g>
</svg>
